Coordinates
version=1
nRows=11
nColumns=36
inDegrees=yes

Units are S.I. units (second, meters, Newtons, ...)
If the header above contains a line with 'inDegrees', this indicates whether rotational values are in degrees (yes) or radians (no).

endheader
time	pelvis_tilt	pelvis_list	pelvis_rotation	pelvis_tx	pelvis_ty	pelvis_tz	hip_flexion_r	hip_adduction_r	hip_rotation_r	knee_angle_r	knee_angle_r_beta	ankle_angle_r	subtalar_angle_r	mtp_angle_r	hip_flexion_l	hip_adduction_l	hip_rotation_l	knee_angle_l	knee_angle_l_beta	ankle_angle_l	subtalar_angle_l	mtp_angle_l	lumbar_extension	lumbar_bending	lumbar_rotation	arm_flex_r	arm_add_r	arm_rot_r	elbow_flex_r	pro_sup_r	arm_flex_l	arm_add_l	arm_rot_l	elbow_flex_l	pro_sup_l
      1.02000000	     -0.04723005	      0.76281373	      1.95828369	      1.13901848	      0.95142449	     -0.22574571	     24.72171125	     -2.13686521	      8.90446215	      7.99621364	      0.13956026	      5.56208089	      0.34006214	     -7.13355035	    -11.15673630	      2.57731694	     16.74175194	      5.69587499	      0.09941177	     15.97649998	      9.71658354	     -7.13355035	     -5.71171801	     -1.97879562	     -6.38899689	    -14.55131500	     -3.39585508	    -18.56874585	     32.29877053	    112.00549712	      8.57878115	    -10.63132157	     -2.83288931	     51.44032766	    110.80007570
      1.03000000	     -0.08949782	      0.89356833	      2.53015664	      1.15099884	      0.94900091	     -0.22567941	     24.77823177	     -2.50705076	      8.55188099	      5.89596858	      0.10290406	      6.55241060	      3.77860478	     -7.14665582	    -12.04061464	      2.47280594	     16.80349256	      5.44195639	      0.09498006	     16.39434858	     10.50350410	     -7.14665582	     -5.77660688	     -2.21135680	     -6.77264611	    -14.67465692	     -3.32989867	    -18.55683445	     31.98628492	    112.03753758	      8.84373738	    -10.66535322	     -2.51633737	     52.38932659	    110.78410134
      1.04000000	     -0.23948556	      1.02955114	      3.04433956	      1.16305387	      0.94635618	     -0.22550377	     24.97651790	     -2.82314309	      8.41419827	      4.17152972	      0.07280693	      7.17841969	      6.34352581	     -7.16083187	    -12.79388130	      2.39735897	     16.89115563	      5.24285976	      0.09150517	     16.80049811	     11.00670898	     -7.16083187	     -5.69576354	     -2.43750845	     -7.20734897	    -14.75557522	     -3.32941312	    -18.44307805	     31.69944905	    112.07214358	      9.03063640	    -10.70760912	     -2.27340651	     53.07586259	    110.76039531
      1.05000000	     -0.31770747	      1.10500095	      3.52926379	      1.17521388	      0.94380101	     -0.22524216	     25.10158194	     -3.02298506	      8.24262674	      2.84311153	      0.04962166	      7.62143432	      8.01853550	     -7.17060599	    -13.63659379	      2.24507912	     16.98171608	      5.04139191	      0.08798889	     17.14346281	     11.38943193	     -7.17060599	     -5.71010586	     -2.59709367	     -7.59598711	    -14.78196512	     -3.32983970	    -18.34101647	     31.39903072	    112.08801980	      9.19615462	    -10.73156474	     -1.98396841	     53.71598815	    110.78718506
      1.06000000	     -0.48471737	      1.13862056	      4.03817753	      1.18751448	      0.94109402	     -0.22494415	     25.36840174	     -3.14131572	      8.15562099	      2.04659383	      0.03571980	      7.97323142	      8.69937620	     -7.17419014	    -14.34614811	      2.05163336	     17.12809638	      4.92737954	      0.08599900	     17.34514315	     11.65432267	     -7.17419014	     -5.58722619	     -2.69966361	     -7.93513634	    -14.91252154	     -3.30961125	    -18.29644294	     31.19478825	    112.09071571	      9.34556115	    -10.67810005	     -1.78291916	     54.10908745	    110.82174732
      1.07000000	     -0.62716143	      1.18607473	      4.35462617	      1.19982587	      0.93840544	     -0.22438609	     25.76772179	     -3.14881150	      8.11948526	      1.91731351	      0.03346343	      8.03563229	      8.71075042	     -7.17445873	    -15.01708417	      1.93441866	     17.02166467	      4.98301385	      0.08697000	     17.37045095	     11.65642598	     -7.17445873	     -5.49935918	     -2.81521364	     -8.14526577	    -14.98240475	     -3.33416958	    -18.30259993	     31.15131687	    112.08866115	      9.52018868	    -10.55974609	     -1.72380177	     54.22024341	    110.83451936
      1.08000000	     -0.43605977	      1.07997134	      4.90823113	      1.21274107	      0.93635536	     -0.22418332	     25.56106251	     -3.07256242	      7.30553282	      1.84437368	      0.03219039	      8.71436304	      8.76795519	     -7.17932196	    -16.18977678	      1.50143941	     17.09243883	      4.71191147	      0.08223837	     17.55549824	     12.21419537	     -7.17932196	     -5.78863128	     -2.69814538	     -8.62767461	    -14.92137372	     -3.38617604	    -18.20718212	     30.76883095	    112.09653131	      9.42724110	    -10.57356451	     -1.38418810	     54.79863296	    110.88508179
      1.09000000	     -0.54926507	      1.09726425	      5.22774210	      1.22570408	      0.93392320	     -0.22371555	     25.65525953	     -3.05961056	      7.30121805	      2.00144034	      0.03493172	      8.74140024	      8.68692311	     -7.17965034	    -16.85956413	      1.34640373	     17.01896317	      4.84215257	      0.08451151	     17.53220091	     12.23339868	     -7.17965034	     -5.66511686	     -2.76545476	     -8.78860147	    -15.02806033	     -3.42739906	    -18.21474840	     30.71020206	    112.09357822	      9.39174061	    -10.39832165	     -1.31420684	     54.84141461	    110.89212798
      1.10000000	     -0.23850786	      0.88195918	      5.60815061	      1.23897530	      0.93221561	     -0.22322746	     25.44245033	     -2.70412730	      6.50164951	      2.90753917	      0.05074613	      9.12534753	      7.16004319	     -7.18544975	    -17.99905193	      0.83083810	     16.73219439	      4.87928565	      0.08515960	     17.36931498	     12.80550509	     -7.18544975	     -6.09642213	     -2.44847591	     -9.17797514	    -14.87473456	     -3.55999726	    -18.12127013	     30.43766180	    112.10311537	      9.15393912	    -10.29092452	     -1.29794281	     55.17324894	    110.87574374
      1.11000000	     -0.13855585	      0.75368698	      5.82912332	      1.25243065	      0.93035514	     -0.22250520	     25.32980403	     -2.38682406	      6.44678090	      3.77896176	      0.06595533	      8.79247437	      5.34023186	     -7.19468508	    -18.76200396	      0.51676852	     16.21121415	      5.24844279	      0.09160261	     17.21161238	     13.29888852	     -7.19468508	     -6.22468897	     -2.28211577	     -9.44645892	    -14.76110464	     -3.64653012	    -18.02292725	     30.29713934	    112.10950222	      8.79506651	    -10.05198097	     -1.53248042	     55.29940823	    110.80799069
      1.12000000	      0.00462366	      0.65909028	      6.02805436	      1.26615895	      0.92876247	     -0.22181006	     25.15867063	     -2.11351871	      6.16808821	      4.88476873	      0.08525530	      8.54742635	      4.39129122	     -7.19712142	    -19.50953225	      0.26515755	     15.84975365	      5.75335434	      0.10041498	     16.83857205	     13.29766906	     -7.19712142	     -6.35801467	     -2.11254181	     -9.59184676	    -14.77388808	     -3.78026611	    -18.07126448	     30.24991263	    112.09578723	      8.51654025	     -9.88029666	     -1.57675067	     55.14483908	    110.78033894
